# xmcd
#
# Track frame offsets: 
#        150
#        14606
#        25160
#        39651
#        95750
#        110334
#        132176
#        146885
#        161804
#        178487
#        189919
#        240229
#
# Disc length: 3573 seconds
#
# Revision: 0
# Processed by: cddbd v1.5.2PL0 Copyright (c) Steve Scherf et al.
# Submitted via: ExactAudioCopy v0.99pb3
#
DISCID=a60df30c
DTITLE=Big Daddy Beatniks Blues Unlimited - Hardly Serious
DYEAR=2006
DGENRE=Blues
TTITLE0=Hardly Serious
TTITLE1=The Way To Easy Street
TTITLE2=Barstool Beauty
TTITLE3=Cheap Whiskey
TTITLE4=Four Seasons Love
TTITLE5=Flyin Away
TTITLE6=Caveman Blues
TTITLE7=On The Road Again
TTITLE8=Funkyslinger
TTITLE9=Let It Be
TTITLE10=What Love Means
TTITLE11=Tom Trauberts Blues
EXTD=
EXTT0=
EXTT1=
EXTT2=
EXTT3=
EXTT4=
EXTT5=
EXTT6=
EXTT7=
EXTT8=
EXTT9=
EXTT10=
EXTT11=
PLAYORDER=
